<svg width="29" height="29" viewBox="0 0 29 29" fill="none" xmlns="http://www.w3.org/2000/svg">
<path d="M22.4896 5.96307C21.4072 4.86979 20.1181 4.00296 18.6972 3.41313C17.2764 2.82331 15.7523 2.5223 14.2139 2.52766C7.76806 2.52766 2.51458 7.78113 2.51458 14.227C2.51458 16.2929 3.05764 18.2999 4.07292 20.0707L2.42014 26.1388L8.61806 24.5096C10.3299 25.4422 12.2542 25.9381 14.2139 25.9381C20.6597 25.9381 25.9132 20.6846 25.9132 14.2388C25.9132 11.1103 24.6972 8.17071 22.4896 5.96307ZM14.2139 23.9547C12.4667 23.9547 10.7549 23.4825 9.25556 22.5971L8.90139 22.3846L5.21806 23.3527L6.19792 19.7638L5.96181 19.3978C4.99109 17.8477 4.47565 16.0559 4.47431 14.227C4.47431 8.86724 8.84236 4.49919 14.2021 4.49919C16.7993 4.49919 19.2431 5.51446 21.0729 7.35613C21.979 8.25803 22.697 9.3308 23.1854 10.5123C23.6738 11.6937 23.9228 12.9604 23.9181 14.2388C23.9417 19.5985 19.5736 23.9547 14.2139 23.9547ZM19.55 16.6825C19.2549 16.5408 17.8146 15.8325 17.5549 15.7263C17.2833 15.6318 17.0944 15.5846 16.8937 15.8679C16.6931 16.1631 16.1382 16.8242 15.9729 17.0131C15.8076 17.2138 15.6306 17.2374 15.3354 17.0839C15.0403 16.9422 14.0958 16.6235 12.9861 15.6318C12.1125 14.8527 11.534 13.8964 11.3569 13.6013C11.1917 13.3061 11.3333 13.1527 11.4868 12.9992C11.6167 12.8693 11.7819 12.6568 11.9236 12.4915C12.0653 12.3263 12.1243 12.1964 12.2188 12.0075C12.3132 11.8068 12.266 11.6415 12.1951 11.4999C12.1243 11.3582 11.534 9.91793 11.2979 9.32766C11.0618 8.76099 10.8139 8.83182 10.6368 8.82002H10.0701C9.86944 8.82002 9.5625 8.89085 9.29097 9.18599C9.03125 9.48113 8.27569 10.1895 8.27569 11.6297C8.27569 13.07 9.32639 14.4631 9.46806 14.652C9.60972 14.8527 11.534 17.804 14.4618 19.0672C15.1583 19.3742 15.7014 19.5513 16.1264 19.6811C16.8229 19.9054 17.4604 19.87 17.9681 19.7992C18.5347 19.7165 19.7035 19.0908 19.9396 18.4061C20.1875 17.7214 20.1875 17.1429 20.1049 17.0131C20.0222 16.8832 19.8451 16.8242 19.55 16.6825Z" fill="#03B800"/>
</svg>
